{
    "asset" : {
        "generator" : "Khronos glTF Blender I/O v1.6.16",
        "version" : "2.0"
    },
    "scene" : 0,
    "scenes" : [
        {
            "name" : "Scene",
            "nodes" : [
                0
            ]
        }
    ],
    "nodes" : [
        {
            "mesh" : 0,
            "name" : "dice_6"
        }
    ],
    "materials" : [
        {
            "emissiveFactor" : [
                1,
                1,
                1
            ],
            "emissiveTexture" : {
                "index" : 0
            },
            "name" : "MAT_dice_6",
            "normalTexture" : {
                "index" : 1
            },
            "pbrMetallicRoughness" : {
                "baseColorTexture" : {
                    "index" : 2
                },
                "metallicRoughnessTexture" : {
                    "index" : 3
                }
            }
        }
    ],
    "meshes" : [
        {
            "name" : "dice_6:006_Mesh_0:051",
            "primitives" : [
                {
                    "attributes" : {
                        "POSITION" : 0,
                        "NORMAL" : 1,
                        "TEXCOORD_0" : 2
                    },
                    "indices" : 3,
                    "material" : 0
                }
            ]
        }
    ],
    "textures" : [
        {
            "sampler" : 0,
            "source" : 0
        },
        {
            "sampler" : 0,
            "source" : 1
        },
        {
            "sampler" : 0,
            "source" : 2
        },
        {
            "sampler" : 0,
            "source" : 3
        }
    ],
    "images" : [
        {
            "mimeType" : "image/png",
            "name" : "MAT_dice_6_Emissive",
            "uri" : "MAT_dice_6_Emissive.webp"
        },
        {
            "mimeType" : "image/png",
            "name" : "MAT_dice_6_NormalMap",
            "uri" : "MAT_dice_6_NormalMap.webp"
        },
        {
            "mimeType" : "image/png",
            "name" : "MAT_dice_6_baseColor",
            "uri" : "MAT_dice_6_baseColor.webp"
        },
        {
            "mimeType" : "image/png",
            "name" : "MAT_dice_6_MetalRoughtMap",
            "uri" : "MAT_dice_6_MetalRoughtMap.webp"
        }
    ],
    "accessors" : [
        {
            "bufferView" : 0,
            "componentType" : 5126,
            "count" : 186,
            "max" : [
                51.96152877807617,
                51.9615364074707,
                51.9615364074707
            ],
            "min" : [
                -51.96152877807617,
                -51.9615364074707,
                -51.9615364074707
            ],
            "type" : "VEC3"
        },
        {
            "bufferView" : 1,
            "componentType" : 5126,
            "count" : 186,
            "type" : "VEC3"
        },
        {
            "bufferView" : 2,
            "componentType" : 5126,
            "count" : 186,
            "type" : "VEC2"
        },
        {
            "bufferView" : 3,
            "componentType" : 5123,
            "count" : 900,
            "type" : "SCALAR"
        }
    ],
    "bufferViews" : [
        {
            "buffer" : 0,
            "byteLength" : 2232,
            "byteOffset" : 0
        },
        {
            "buffer" : 0,
            "byteLength" : 2232,
            "byteOffset" : 2232
        },
        {
            "buffer" : 0,
            "byteLength" : 1488,
            "byteOffset" : 4464
        },
        {
            "buffer" : 0,
            "byteLength" : 1800,
            "byteOffset" : 5952
        }
    ],
    "samplers" : [
        {
            "magFilter" : 9729,
            "minFilter" : 9987
        }
    ],
    "buffers" : [
        {
            "byteLength" : 7752,
            "uri" : "TPK_d6.bin"
        }
    ]
}
