{
    "asset" : {
        "generator" : "Khronos glTF Blender I/O v1.6.16",
        "version" : "2.0"
    },
    "scene" : 0,
    "scenes" : [
        {
            "name" : "Scene",
            "nodes" : [
                0
            ]
        }
    ],
    "nodes" : [
        {
            "mesh" : 0,
            "name" : "dice_2"
        }
    ],
    "materials" : [
        {
            "emissiveFactor" : [
                1,
                1,
                1
            ],
            "emissiveTexture" : {
                "index" : 0
            },
            "name" : "MAT_dice_2",
            "normalTexture" : {
                "index" : 1
            },
            "pbrMetallicRoughness" : {
                "baseColorTexture" : {
                    "index" : 2
                },
                "metallicRoughnessTexture" : {
                    "index" : 3
                }
            }
        }
    ],
    "meshes" : [
        {
            "name" : "dice_2:006_Mesh_0:049",
            "primitives" : [
                {
                    "attributes" : {
                        "POSITION" : 0,
                        "NORMAL" : 1,
                        "TEXCOORD_0" : 2
                    },
                    "indices" : 3,
                    "material" : 0
                }
            ]
        }
    ],
    "textures" : [
        {
            "sampler" : 0,
            "source" : 0
        },
        {
            "sampler" : 0,
            "source" : 1
        },
        {
            "sampler" : 0,
            "source" : 2
        },
        {
            "sampler" : 0,
            "source" : 3
        }
    ],
    "images" : [
        {
            "mimeType" : "image/png",
            "name" : "MAT_dice_2_Emissive",
            "uri" : "MAT_dice_2_Emissive.webp"
        },
        {
            "mimeType" : "image/png",
            "name" : "MAT_dice_2_NormalMap",
            "uri" : "MAT_dice_2_NormalMap.webp"
        },
        {
            "mimeType" : "image/png",
            "name" : "MAT_dice_2_baseColor",
            "uri" : "MAT_dice_2_baseColor.webp"
        },
        {
            "mimeType" : "image/png",
            "name" : "MAT_dice_2_MetalRoughtMap",
            "uri" : "MAT_dice_2_MetalRoughtMap.webp"
        }
    ],
    "accessors" : [
        {
            "bufferView" : 0,
            "componentType" : 5126,
            "count" : 442,
            "max" : [
                90.24105072021484,
                90.2411117553711,
                6.28230619430542
            ],
            "min" : [
                -90.24105072021484,
                -90.2411117553711,
                -6.28230619430542
            ],
            "type" : "VEC3"
        },
        {
            "bufferView" : 1,
            "componentType" : 5126,
            "count" : 442,
            "type" : "VEC3"
        },
        {
            "bufferView" : 2,
            "componentType" : 5126,
            "count" : 442,
            "type" : "VEC2"
        },
        {
            "bufferView" : 3,
            "componentType" : 5123,
            "count" : 2400,
            "type" : "SCALAR"
        }
    ],
    "bufferViews" : [
        {
            "buffer" : 0,
            "byteLength" : 5304,
            "byteOffset" : 0
        },
        {
            "buffer" : 0,
            "byteLength" : 5304,
            "byteOffset" : 5304
        },
        {
            "buffer" : 0,
            "byteLength" : 3536,
            "byteOffset" : 10608
        },
        {
            "buffer" : 0,
            "byteLength" : 4800,
            "byteOffset" : 14144
        }
    ],
    "samplers" : [
        {
            "magFilter" : 9729,
            "minFilter" : 9987
        }
    ],
    "buffers" : [
        {
            "byteLength" : 18944,
            "uri" : "d2.bin"
        }
    ]
}
